{
    "asset" : {
        "generator" : "Khronos glTF Blender I/O v1.6.16",
        "version" : "2.0"
    },
    "scene" : 0,
    "scenes" : [
        {
            "name" : "Scene",
            "nodes" : [
                0
            ]
        }
    ],
    "nodes" : [
        {
            "mesh" : 0,
            "name" : "Tete",
            "rotation" : [
                -0.07845909893512726,
                0.9969174265861511,
                0,
                -1.6241845912645658e-07
            ],
            "scale" : [
                1.456941843032837,
                1.5021857023239136,
                1.4557589292526245
            ],
            "translation" : [
                -0.11485221982002258,
                0.5,
                0
            ]
        }
    ],
    "materials" : [
        {
            "doubleSided" : true,
            "name" : "Material.004",
            "pbrMetallicRoughness" : {
                "baseColorFactor" : [
                    0.005247882567346096,
                    0.005624168552458286,
                    0.33245137333869934,
                    1
                ],
                "metallicFactor" : 0,
                "roughnessFactor" : 0.5
            }
        }
    ],
    "meshes" : [
        {
            "name" : "Roundcube.031",
            "primitives" : [
                {
                    "attributes" : {
                        "POSITION" : 0,
                        "NORMAL" : 1
                    },
                    "indices" : 2,
                    "material" : 0
                }
            ]
        }
    ],
    "accessors" : [
        {
            "bufferView" : 0,
            "componentType" : 5126,
            "count" : 8677,
            "max" : [
                1.1599993705749512,
                0.8197805285453796,
                0.8466014266014099
            ],
            "min" : [
                -1.1801918745040894,
                -0.7222782969474792,
                -0.9054704308509827
            ],
            "type" : "VEC3"
        },
        {
            "bufferView" : 1,
            "componentType" : 5126,
            "count" : 8677,
            "type" : "VEC3"
        },
        {
            "bufferView" : 2,
            "componentType" : 5123,
            "count" : 51960,
            "type" : "SCALAR"
        }
    ],
    "bufferViews" : [
        {
            "buffer" : 0,
            "byteLength" : 104124,
            "byteOffset" : 0
        },
        {
            "buffer" : 0,
            "byteLength" : 104124,
            "byteOffset" : 104124
        },
        {
            "buffer" : 0,
            "byteLength" : 103920,
            "byteOffset" : 208248
        }
    ],
    "buffers" : [
        {
            "byteLength" : 312168,
            "uri" : "head-singe-blue.bin"
        }
    ]
}
