{
    "asset" : {
        "generator" : "Khronos glTF Blender I/O v1.6.16",
        "version" : "2.0"
    },
    "scene" : 0,
    "scenes" : [
        {
            "name" : "Scene",
            "nodes" : [
                0
            ]
        }
    ],
    "nodes" : [
        {
            "mesh" : 0,
            "name" : "Roundcube.016",
            "rotation" : [
                -0.30314433574676514,
                0.2491752952337265,
                -0.5294177532196045,
                0.752151608467102
            ],
            "scale" : [
                0.14003078639507294,
                0.12443909049034119,
                0.08839800208806992
            ],
            "translation" : [
                -2.251446485519409,
                -0.3927043378353119,
                0.07221178710460663
            ]
        }
    ],
    "materials" : [
        {
            "doubleSided" : true,
            "name" : "Material.003",
            "pbrMetallicRoughness" : {
                "baseColorFactor" : [
                    0.009299397468566895,
                    0.8000000715255737,
                    0.007046366576105356,
                    1
                ],
                "metallicFactor" : 0,
                "roughnessFactor" : 0.5
            }
        }
    ],
    "meshes" : [
        {
            "name" : "Roundcube.001",
            "primitives" : [
                {
                    "attributes" : {
                        "POSITION" : 0,
                        "NORMAL" : 1
                    },
                    "indices" : 2,
                    "material" : 0
                }
            ]
        }
    ],
    "accessors" : [
        {
            "bufferView" : 0,
            "componentType" : 5126,
            "count" : 2128,
            "max" : [
                4.545157432556152,
                1.2723965644836426,
                2.857208013534546
            ],
            "min" : [
                -1.0235755443572998,
                -5.563791275024414,
                -2.007840871810913
            ],
            "type" : "VEC3"
        },
        {
            "bufferView" : 1,
            "componentType" : 5126,
            "count" : 2128,
            "type" : "VEC3"
        },
        {
            "bufferView" : 2,
            "componentType" : 5123,
            "count" : 12600,
            "type" : "SCALAR"
        }
    ],
    "bufferViews" : [
        {
            "buffer" : 0,
            "byteLength" : 25536,
            "byteOffset" : 0
        },
        {
            "buffer" : 0,
            "byteLength" : 25536,
            "byteOffset" : 25536
        },
        {
            "buffer" : 0,
            "byteLength" : 25200,
            "byteOffset" : 51072
        }
    ],
    "buffers" : [
        {
            "byteLength" : 76272,
            "uri" : "mainGaucheSingeVert.bin"
        }
    ]
}
