{
    "asset" : {
        "generator" : "Khronos glTF Blender I/O v1.6.16",
        "version" : "2.0"
    },
    "scene" : 0,
    "scenes" : [
        {
            "name" : "Scene",
            "nodes" : [
                0
            ]
        }
    ],
    "nodes" : [
        {
            "mesh" : 0,
            "name" : "Roundcube.032",
            "rotation" : [
                0.28702494502067566,
                -0.0471499003469944,
                -0.9433166980743408,
                -0.15983545780181885
            ],
            "scale" : [
                0.08459292352199554,
                0.08459293097257614,
                0.05597814545035362
            ],
            "translation" : [
                2.488548994064331,
                -0.21171535551548004,
                0.2929355204105377
            ]
        }
    ],
    "materials" : [
        {
            "doubleSided" : true,
            "name" : "Material.003",
            "pbrMetallicRoughness" : {
                "baseColorFactor" : [
                    0.017840398475527763,
                    0.8000000715255737,
                    0.00936602521687746,
                    1
                ],
                "metallicFactor" : 0,
                "roughnessFactor" : 0.5
            }
        }
    ],
    "meshes" : [
        {
            "name" : "Roundcube.032",
            "primitives" : [
                {
                    "attributes" : {
                        "POSITION" : 0,
                        "NORMAL" : 1
                    },
                    "indices" : 2,
                    "material" : 0
                }
            ]
        }
    ],
    "accessors" : [
        {
            "bufferView" : 0,
            "componentType" : 5126,
            "count" : 2128,
            "max" : [
                6.19380521774292,
                3.238736629486084,
                4.457403182983398
            ],
            "min" : [
                -3.7408576011657715,
                -6.275197505950928,
                -2.9700512886047363
            ],
            "type" : "VEC3"
        },
        {
            "bufferView" : 1,
            "componentType" : 5126,
            "count" : 2128,
            "type" : "VEC3"
        },
        {
            "bufferView" : 2,
            "componentType" : 5123,
            "count" : 12600,
            "type" : "SCALAR"
        }
    ],
    "bufferViews" : [
        {
            "buffer" : 0,
            "byteLength" : 25536,
            "byteOffset" : 0
        },
        {
            "buffer" : 0,
            "byteLength" : 25536,
            "byteOffset" : 25536
        },
        {
            "buffer" : 0,
            "byteLength" : 25200,
            "byteOffset" : 51072
        }
    ],
    "buffers" : [
        {
            "byteLength" : 76272,
            "uri" : "mainDroiteSingeVert.bin"
        }
    ]
}
