{
    "asset" : {
        "generator" : "Khronos glTF Blender I/O v1.6.16",
        "version" : "2.0"
    },
    "scene" : 0,
    "scenes" : [
        {
            "name" : "Scene",
            "nodes" : [
                0
            ]
        }
    ],
    "nodes" : [
        {
            "mesh" : 0,
            "name" : "Pieds et main",
            "rotation" : [
                0.5287226438522339,
                0.49378010630607605,
                -0.5312198996543884,
                0.440952330827713
            ],
            "scale" : [
                0.2612302005290985,
                0.3227004110813141,
                0.2136177271604538
            ],
            "translation" : [
                1.2607640027999878,
                -2.567830801010132,
                0.5386919975280762
            ]
        }
    ],
    "materials" : [
        {
            "doubleSided" : true,
            "name" : "Material.003",
            "pbrMetallicRoughness" : {
                "baseColorFactor" : [
                    0.8000000715255737,
                    0.0026966100558638573,
                    0.0009100511088036001,
                    1
                ],
                "metallicFactor" : 0,
                "roughnessFactor" : 0.5
            }
        }
    ],
    "meshes" : [
        {
            "name" : "Roundcube.061",
            "primitives" : [
                {
                    "attributes" : {
                        "POSITION" : 0,
                        "NORMAL" : 1
                    },
                    "indices" : 2,
                    "material" : 0
                }
            ]
        }
    ],
    "accessors" : [
        {
            "bufferView" : 0,
            "componentType" : 5126,
            "count" : 17512,
            "max" : [
                3.4300057888031006,
                3.806267261505127,
                3.4205307960510254
            ],
            "min" : [
                -2.2812719345092773,
                -12.812628746032715,
                -14.290393829345703
            ],
            "type" : "VEC3"
        },
        {
            "bufferView" : 1,
            "componentType" : 5126,
            "count" : 17512,
            "type" : "VEC3"
        },
        {
            "bufferView" : 2,
            "componentType" : 5123,
            "count" : 104400,
            "type" : "SCALAR"
        }
    ],
    "bufferViews" : [
        {
            "buffer" : 0,
            "byteLength" : 210144,
            "byteOffset" : 0
        },
        {
            "buffer" : 0,
            "byteLength" : 210144,
            "byteOffset" : 210144
        },
        {
            "buffer" : 0,
            "byteLength" : 208800,
            "byteOffset" : 420288
        }
    ],
    "buffers" : [
        {
            "byteLength" : 629088,
            "uri" : "pates-singe-red.bin"
        }
    ]
}
