{
    "asset" : {
        "generator" : "Khronos glTF Blender I/O v1.6.16",
        "version" : "2.0"
    },
    "scene" : 0,
    "scenes" : [
        {
            "name" : "Scene",
            "nodes" : [
                0
            ]
        }
    ],
    "nodes" : [
        {
            "mesh" : 0,
            "name" : "Roundcube.061",
            "rotation" : [
                0.5287226438522339,
                0.49378010630607605,
                -0.5312198996543884,
                0.440952330827713
            ],
            "scale" : [
                0.2612302005290985,
                0.3227004110813141,
                0.2136177271604538
            ],
            "translation" : [
                1.2607640027999878,
                -2.567830801010132,
                0.5386919975280762
            ]
        }
    ],
    "materials" : [
        {
            "doubleSided" : true,
            "name" : "Material.026",
            "pbrMetallicRoughness" : {
                "baseColorFactor" : [
                    0.0055849202908575535,
                    0.004461380187422037,
                    0.6172067523002625,
                    1
                ],
                "metallicFactor" : 0,
                "roughnessFactor" : 0.5
            }
        }
    ],
    "meshes" : [
        {
            "name" : "Roundcube.061",
            "primitives" : [
                {
                    "attributes" : {
                        "POSITION" : 0,
                        "NORMAL" : 1
                    },
                    "indices" : 2,
                    "material" : 0
                }
            ]
        }
    ],
    "accessors" : [
        {
            "bufferView" : 0,
            "componentType" : 5126,
            "count" : 33628,
            "max" : [
                0.9957042932510376,
                1.4677376747131348,
                0.9957042932510376
            ],
            "min" : [
                -2.275106906890869,
                -1.5833826065063477,
                -0.9957042932510376
            ],
            "type" : "VEC3"
        },
        {
            "bufferView" : 1,
            "componentType" : 5126,
            "count" : 33628,
            "type" : "VEC3"
        },
        {
            "bufferView" : 2,
            "componentType" : 5123,
            "count" : 201600,
            "type" : "SCALAR"
        }
    ],
    "bufferViews" : [
        {
            "buffer" : 0,
            "byteLength" : 403536,
            "byteOffset" : 0
        },
        {
            "buffer" : 0,
            "byteLength" : 403536,
            "byteOffset" : 403536
        },
        {
            "buffer" : 0,
            "byteLength" : 403200,
            "byteOffset" : 807072
        }
    ],
    "buffers" : [
        {
            "byteLength" : 1210272,
            "uri" : "piedDroitSingeBleu.bin"
        }
    ]
}
