{
    "asset" : {
        "generator" : "Khronos glTF Blender I/O v1.6.16",
        "version" : "2.0"
    },
    "scene" : 0,
    "scenes" : [
        {
            "name" : "Scene",
            "nodes" : [
                0
            ]
        }
    ],
    "nodes" : [
        {
            "mesh" : 0,
            "name" : "cercle oeil droit",
            "rotation" : [
                -0.19074194133281708,
                -0.6366470456123352,
                0.15980245172977448,
                -0.7299049496650696
            ],
            "scale" : [
                0.21987763047218323,
                0.2828025221824646,
                0.2828024923801422
            ],
            "translation" : [
                0.255283921957016,
                0.8915207982063293,
                0.926395058631897
            ]
        }
    ],
    "materials" : [
        {
            "doubleSided" : true,
            "name" : "Material.006",
            "pbrMetallicRoughness" : {
                "baseColorFactor" : [
                    0.024275071918964386,
                    1,
                    0,
                    1
                ],
                "metallicFactor" : 0,
                "roughnessFactor" : 0.4000000059604645
            }
        },
        {
            "doubleSided" : true,
            "name" : "Material.002",
            "pbrMetallicRoughness" : {
                "baseColorFactor" : [
                    0.09083767235279083,
                    0.09083767235279083,
                    0.09083767235279083,
                    1
                ],
                "metallicFactor" : 0,
                "roughnessFactor" : 0.5
            }
        },
        {
            "doubleSided" : true,
            "name" : "Material.001",
            "pbrMetallicRoughness" : {
                "baseColorFactor" : [
                    0.0732354074716568,
                    0.0732354074716568,
                    0.0732354074716568,
                    1
                ],
                "metallicFactor" : 0,
                "roughnessFactor" : 0.5
            }
        }
    ],
    "meshes" : [
        {
            "name" : "Roundcube.075",
            "primitives" : [
                {
                    "attributes" : {
                        "POSITION" : 0,
                        "NORMAL" : 1
                    },
                    "indices" : 2,
                    "material" : 0
                },
                {
                    "attributes" : {
                        "POSITION" : 3,
                        "NORMAL" : 4
                    },
                    "indices" : 5,
                    "material" : 1
                },
                {
                    "attributes" : {
                        "POSITION" : 6,
                        "NORMAL" : 7
                    },
                    "indices" : 5,
                    "material" : 2
                }
            ]
        }
    ],
    "accessors" : [
        {
            "bufferView" : 0,
            "componentType" : 5126,
            "count" : 1988,
            "max" : [
                0.0250089168548584,
                0.8146275281906128,
                1.0996146202087402
            ],
            "min" : [
                -1.9339120388031006,
                -2.842405319213867,
                -3.546872138977051
            ],
            "type" : "VEC3"
        },
        {
            "bufferView" : 1,
            "componentType" : 5126,
            "count" : 1988,
            "type" : "VEC3"
        },
        {
            "bufferView" : 2,
            "componentType" : 5123,
            "count" : 11520,
            "type" : "SCALAR"
        },
        {
            "bufferView" : 3,
            "componentType" : 5126,
            "count" : 801,
            "max" : [
                -0.5325512290000916,
                -0.9667474627494812,
                -1.889624834060669
            ],
            "min" : [
                -1.4937834739685059,
                -2.4163308143615723,
                -3.311079978942871
            ],
            "type" : "VEC3"
        },
        {
            "bufferView" : 4,
            "componentType" : 5126,
            "count" : 801,
            "type" : "VEC3"
        },
        {
            "bufferView" : 5,
            "componentType" : 5123,
            "count" : 4608,
            "type" : "SCALAR"
        },
        {
            "bufferView" : 6,
            "componentType" : 5126,
            "count" : 801,
            "max" : [
                -0.348771870136261,
                0.644156813621521,
                0.8223402500152588
            ],
            "min" : [
                -1.026075839996338,
                -0.7070620656013489,
                -0.5289865732192993
            ],
            "type" : "VEC3"
        },
        {
            "bufferView" : 7,
            "componentType" : 5126,
            "count" : 801,
            "type" : "VEC3"
        }
    ],
    "bufferViews" : [
        {
            "buffer" : 0,
            "byteLength" : 23856,
            "byteOffset" : 0
        },
        {
            "buffer" : 0,
            "byteLength" : 23856,
            "byteOffset" : 23856
        },
        {
            "buffer" : 0,
            "byteLength" : 23040,
            "byteOffset" : 47712
        },
        {
            "buffer" : 0,
            "byteLength" : 9612,
            "byteOffset" : 70752
        },
        {
            "buffer" : 0,
            "byteLength" : 9612,
            "byteOffset" : 80364
        },
        {
            "buffer" : 0,
            "byteLength" : 9216,
            "byteOffset" : 89976
        },
        {
            "buffer" : 0,
            "byteLength" : 9612,
            "byteOffset" : 99192
        },
        {
            "buffer" : 0,
            "byteLength" : 9612,
            "byteOffset" : 108804
        }
    ],
    "buffers" : [
        {
            "byteLength" : 118416,
            "uri" : "yeuxNez-singe-green.bin"
        }
    ]
}
