{
    "asset" : {
        "generator" : "Khronos glTF Blender I/O v1.6.16",
        "version" : "2.0"
    },
    "scene" : 0,
    "scenes" : [
        {
            "name" : "Scene",
            "nodes" : [
                0
            ]
        }
    ],
    "nodes" : [
        {
            "mesh" : 0,
            "name" : "imagetostl_mesh"
        }
    ],
    "materials" : [
        {
            "doubleSided" : true,
            "name" : "mat0",
            "pbrMetallicRoughness" : {
                "baseColorFactor" : [
                    0.8627450466156006,
                    0.001997297164052725,
                    0,
                    1
                ],
                "metallicFactor" : 0,
                "roughnessFactor" : 0.4000000059604645
            }
        }
    ],
    "meshes" : [
        {
            "name" : "imagetostl_mesh",
            "primitives" : [
                {
                    "attributes" : {
                        "POSITION" : 0,
                        "NORMAL" : 1
                    },
                    "indices" : 2,
                    "material" : 0
                }
            ]
        }
    ],
    "accessors" : [
        {
            "bufferView" : 0,
            "componentType" : 5126,
            "count" : 87906,
            "max" : [
                -21.945941925048828,
                39.95365524291992,
                40.03113555908203
            ],
            "min" : [
                -35.49898147583008,
                36.4788703918457,
                28.45569610595703
            ],
            "type" : "VEC3"
        },
        {
            "bufferView" : 1,
            "componentType" : 5126,
            "count" : 87906,
            "type" : "VEC3"
        },
        {
            "bufferView" : 2,
            "componentType" : 5125,
            "count" : 87906,
            "type" : "SCALAR"
        }
    ],
    "bufferViews" : [
        {
            "buffer" : 0,
            "byteLength" : 1054872,
            "byteOffset" : 0
        },
        {
            "buffer" : 0,
            "byteLength" : 1054872,
            "byteOffset" : 1054872
        },
        {
            "buffer" : 0,
            "byteLength" : 351624,
            "byteOffset" : 2109744
        }
    ],
    "buffers" : [
        {
            "byteLength" : 2461368,
            "uri" : "zone2-serpent-red.bin"
        }
    ]
}
