{
    "asset" : {
        "generator" : "Khronos glTF Blender I/O v1.6.16",
        "version" : "2.0"
    },
    "scene" : 0,
    "scenes" : [
        {
            "name" : "Scene",
            "nodes" : [
                0
            ]
        }
    ],
    "nodes" : [
        {
            "mesh" : 0,
            "name" : "Tete-Oreilles",
            "translation" : [
                -0.42717671394348145,
                0.3885549306869507,
                0.24446409940719604
            ]
        }
    ],
    "materials" : [
        {
            "doubleSided" : true,
            "name" : "Material.003",
            "pbrMetallicRoughness" : {
                "baseColorFactor" : [
                    0.009018116630613804,
                    0.009018116630613804,
                    0.009018116630613804,
                    1
                ],
                "metallicFactor" : 0,
                "roughnessFactor" : 0.5
            }
        },
        {
            "doubleSided" : true,
            "name" : "Material.007",
            "pbrMetallicRoughness" : {
                "baseColorFactor" : [
                    0.7591059803962708,
                    0.8069524765014648,
                    0.8069524765014648,
                    1
                ],
                "metallicFactor" : 0,
                "roughnessFactor" : 0.5
            }
        },
        {
            "doubleSided" : true,
            "name" : "Material.005",
            "pbrMetallicRoughness" : {
                "baseColorFactor" : [
                    0.1274377405643463,
                    0.14702731370925903,
                    0.17788845300674438,
                    1
                ],
                "metallicFactor" : 0,
                "roughnessFactor" : 0.5
            }
        },
        {
            "doubleSided" : true,
            "name" : "Material.002",
            "pbrMetallicRoughness" : {
                "baseColorFactor" : [
                    0.1274377405643463,
                    0.14702731370925903,
                    0.17788845300674438,
                    1
                ],
                "metallicFactor" : 0,
                "roughnessFactor" : 0.5
            }
        }
    ],
    "meshes" : [
        {
            "name" : "Roundcube.027",
            "primitives" : [
                {
                    "attributes" : {
                        "POSITION" : 0,
                        "NORMAL" : 1
                    },
                    "indices" : 2,
                    "material" : 0
                },
                {
                    "attributes" : {
                        "POSITION" : 3,
                        "NORMAL" : 4
                    },
                    "indices" : 5,
                    "material" : 1
                },
                {
                    "attributes" : {
                        "POSITION" : 6,
                        "NORMAL" : 7
                    },
                    "indices" : 2,
                    "material" : 2
                },
                {
                    "attributes" : {
                        "POSITION" : 8,
                        "NORMAL" : 9
                    },
                    "indices" : 2,
                    "material" : 3
                }
            ]
        }
    ],
    "accessors" : [
        {
            "bufferView" : 0,
            "componentType" : 5126,
            "count" : 801,
            "max" : [
                0.9087979197502136,
                0.8146746754646301,
                0.9505185484886169
            ],
            "min" : [
                0.5906922817230225,
                0.4451296925544739,
                0.6474548578262329
            ],
            "type" : "VEC3"
        },
        {
            "bufferView" : 1,
            "componentType" : 5126,
            "count" : 801,
            "type" : "VEC3"
        },
        {
            "bufferView" : 2,
            "componentType" : 5123,
            "count" : 4608,
            "type" : "SCALAR"
        },
        {
            "bufferView" : 3,
            "componentType" : 5126,
            "count" : 4633,
            "max" : [
                1.494254469871521,
                1.7776780128479004,
                1.1983388662338257
            ],
            "min" : [
                -1.494254469871521,
                -0.24387823045253754,
                -1.3860639333724976
            ],
            "type" : "VEC3"
        },
        {
            "bufferView" : 4,
            "componentType" : 5126,
            "count" : 4633,
            "type" : "VEC3"
        },
        {
            "bufferView" : 5,
            "componentType" : 5123,
            "count" : 27360,
            "type" : "SCALAR"
        },
        {
            "bufferView" : 6,
            "componentType" : 5126,
            "count" : 801,
            "max" : [
                -0.4864127039909363,
                0.790937066078186,
                1.0482337474822998
            ],
            "min" : [
                -0.80454421043396,
                0.421392023563385,
                0.7451955080032349
            ],
            "type" : "VEC3"
        },
        {
            "bufferView" : 7,
            "componentType" : 5126,
            "count" : 801,
            "type" : "VEC3"
        },
        {
            "bufferView" : 8,
            "componentType" : 5126,
            "count" : 801,
            "max" : [
                0.9087979197502136,
                0.8146746754646301,
                0.9505185484886169
            ],
            "min" : [
                0.5906922817230225,
                0.4451296925544739,
                0.6474548578262329
            ],
            "type" : "VEC3"
        },
        {
            "bufferView" : 9,
            "componentType" : 5126,
            "count" : 801,
            "type" : "VEC3"
        }
    ],
    "bufferViews" : [
        {
            "buffer" : 0,
            "byteLength" : 9612,
            "byteOffset" : 0
        },
        {
            "buffer" : 0,
            "byteLength" : 9612,
            "byteOffset" : 9612
        },
        {
            "buffer" : 0,
            "byteLength" : 9216,
            "byteOffset" : 19224
        },
        {
            "buffer" : 0,
            "byteLength" : 55596,
            "byteOffset" : 28440
        },
        {
            "buffer" : 0,
            "byteLength" : 55596,
            "byteOffset" : 84036
        },
        {
            "buffer" : 0,
            "byteLength" : 54720,
            "byteOffset" : 139632
        },
        {
            "buffer" : 0,
            "byteLength" : 9612,
            "byteOffset" : 194352
        },
        {
            "buffer" : 0,
            "byteLength" : 9612,
            "byteOffset" : 203964
        },
        {
            "buffer" : 0,
            "byteLength" : 9612,
            "byteOffset" : 213576
        },
        {
            "buffer" : 0,
            "byteLength" : 9612,
            "byteOffset" : 223188
        }
    ],
    "buffers" : [
        {
            "byteLength" : 232800,
            "uri" : "zone1-rhino-white.bin"
        }
    ]
}
