{
    "asset" : {
        "generator" : "Khronos glTF Blender I/O v1.6.16",
        "version" : "2.0"
    },
    "scene" : 0,
    "scenes" : [
        {
            "name" : "Scene",
            "nodes" : [
                0,
                1,
                2
            ]
        }
    ],
    "nodes" : [
        {
            "name" : "Light",
            "rotation" : [
                0.16907575726509094,
                0.7558803558349609,
                -0.27217137813568115,
                0.570947527885437
            ],
            "translation" : [
                4.076245307922363,
                5.903861999511719,
                -1.0054539442062378
            ]
        },
        {
            "name" : "Camera",
            "rotation" : [
                0.483536034822464,
                0.33687159419059753,
                -0.20870360732078552,
                0.7804827094078064
            ],
            "translation" : [
                7.358891487121582,
                4.958309173583984,
                6.925790786743164
            ]
        },
        {
            "mesh" : 0,
            "name" : "imagetostl_mesh"
        }
    ],
    "materials" : [
        {
            "doubleSided" : true,
            "name" : "mat0",
            "pbrMetallicRoughness" : {
                "baseColorFactor" : [
                    0.7935103178024292,
                    0,
                    0.8627450466156006,
                    1
                ],
                "metallicFactor" : 0,
                "roughnessFactor" : 0.4000000059604645
            }
        }
    ],
    "meshes" : [
        {
            "name" : "imagetostl_mesh",
            "primitives" : [
                {
                    "attributes" : {
                        "POSITION" : 0,
                        "NORMAL" : 1
                    },
                    "indices" : 2,
                    "material" : 0
                }
            ]
        }
    ],
    "accessors" : [
        {
            "bufferView" : 0,
            "componentType" : 5126,
            "count" : 774540,
            "max" : [
                35.87894058227539,
                42.46304702758789,
                46.72801208496094
            ],
            "min" : [
                -40.596858978271484,
                -0.5465061068534851,
                -39.750301361083984
            ],
            "type" : "VEC3"
        },
        {
            "bufferView" : 1,
            "componentType" : 5126,
            "count" : 774540,
            "type" : "VEC3"
        },
        {
            "bufferView" : 2,
            "componentType" : 5125,
            "count" : 774540,
            "type" : "SCALAR"
        }
    ],
    "bufferViews" : [
        {
            "buffer" : 0,
            "byteLength" : 9294480,
            "byteOffset" : 0
        },
        {
            "buffer" : 0,
            "byteLength" : 9294480,
            "byteOffset" : 9294480
        },
        {
            "buffer" : 0,
            "byteLength" : 3098160,
            "byteOffset" : 18588960
        }
    ],
    "buffers" : [
        {
            "byteLength" : 21687120,
            "uri" : "zone3-serpent-purple.bin"
        }
    ]
}
