{
    "asset" : {
        "generator" : "Khronos glTF Blender I/O v1.6.16",
        "version" : "2.0"
    },
    "scene" : 0,
    "scenes" : [
        {
            "name" : "Scene",
            "nodes" : [
                0
            ]
        }
    ],
    "nodes" : [
        {
            "mesh" : 0,
            "name" : "TeteBas",
            "scale" : [
                1,
                0.9855239987373352,
                1.1909087896347046
            ],
            "translation" : [
                -0.41670578718185425,
                0.33020997047424316,
                0.3792397975921631
            ]
        }
    ],
    "materials" : [
        {
            "doubleSided" : true,
            "name" : "Material.008",
            "pbrMetallicRoughness" : {
                "baseColorFactor" : [
                    0.005110639147460461,
                    0,
                    0.8069524765014648,
                    1
                ],
                "metallicFactor" : 0,
                "roughnessFactor" : 0.5
            }
        }
    ],
    "meshes" : [
        {
            "name" : "Roundcube.005",
            "primitives" : [
                {
                    "attributes" : {
                        "POSITION" : 0,
                        "NORMAL" : 1
                    },
                    "indices" : 2,
                    "material" : 0
                }
            ]
        }
    ],
    "accessors" : [
        {
            "bufferView" : 0,
            "componentType" : 5126,
            "count" : 24666,
            "max" : [
                1.6779606342315674,
                0.5916487574577332,
                1.612595796585083
            ],
            "min" : [
                -1.6779606342315674,
                -0.96351158618927,
                -1.3468034267425537
            ],
            "type" : "VEC3"
        },
        {
            "bufferView" : 1,
            "componentType" : 5126,
            "count" : 24666,
            "type" : "VEC3"
        },
        {
            "bufferView" : 2,
            "componentType" : 5123,
            "count" : 147456,
            "type" : "SCALAR"
        }
    ],
    "bufferViews" : [
        {
            "buffer" : 0,
            "byteLength" : 295992,
            "byteOffset" : 0
        },
        {
            "buffer" : 0,
            "byteLength" : 295992,
            "byteOffset" : 295992
        },
        {
            "buffer" : 0,
            "byteLength" : 294912,
            "byteOffset" : 591984
        }
    ],
    "buffers" : [
        {
            "byteLength" : 886896,
            "uri" : "zone2-rhino-blue.bin"
        }
    ]
}
