# Blender v2.93.5 OBJ File: ''
# www.blender.org
mtllib cube.mtl
o Cube
v 1.000000 1.000000 -1.000000
v 1.000000 -1.000000 -1.000000
v 1.000000 1.000000 1.000000
v 1.000000 -1.000000 1.000000
v -1.000000 1.000000 -1.000000
v -1.000000 -1.000000 -1.000000
v -1.000000 1.000000 1.000000
v -1.000000 -1.000000 1.000000
vt 0.625000 0.500000
vt 0.875000 0.500000
vt 0.875000 0.750000
vt 0.625000 0.750000
vt 0.375000 0.000000
vt 0.625000 0.000000
vt 0.625000 0.250000
vt 0.375000 0.250000
vt 0.375000 0.500000
vt 0.375000 0.750000
vt 0.625000 1.000000
vt 0.375000 1.000000
vt 0.125000 0.500000
vt 0.125000 0.750000
vn 0.0000 1.0000 0.0000
vn -1.0000 0.0000 0.0000
vn 1.0000 0.0000 0.0000
vn 0.0000 0.0000 -1.0000
vn 0.0000 0.0000 1.0000
vn 0.0000 -1.0000 0.0000
g Cube_Cube_Dessus
usemtl Dessus
s off
f 1/1/1 5/2/1 7/3/1 3/4/1
g Cube_Cube_Droite
usemtl Droite
f 8/5/2 7/6/2 5/7/2 6/8/2
g Cube_Cube_Gauche
usemtl Gauche
f 2/9/3 1/1/3 3/4/3 4/10/3
g Cube_Cube_Devant_
usemtl Devant_
f 6/8/4 5/7/4 1/1/4 2/9/4
g Cube_Cube_Derrière
usemtl Derrière
f 4/10/5 3/4/5 7/11/5 8/12/5
g Cube_Cube_Dessous_
usemtl Dessous_
f 6/13/6 2/9/6 4/10/6 8/14/6
