{
    "asset" : {
        "generator" : "Khronos glTF Blender I/O v1.6.16",
        "version" : "2.0"
    },
    "scene" : 0,
    "scenes" : [
        {
            "name" : "Scene",
            "nodes" : [
                0
            ]
        }
    ],
    "nodes" : [
        {
            "mesh" : 0,
            "name" : "Roundcube.046",
            "rotation" : [
                0.6226429343223572,
                -0.3068673312664032,
                -0.28624728322029114,
                -0.660462498664856
            ],
            "scale" : [
                0.08842961490154266,
                0.08842962980270386,
                0.05851702019572258
            ],
            "translation" : [
                -0.6783159971237183,
                -2.868786334991455,
                0.6998646855354309
            ]
        }
    ],
    "materials" : [
        {
            "doubleSided" : true,
            "name" : "Material.003",
            "pbrMetallicRoughness" : {
                "baseColorFactor" : [
                    0.014441709965467453,
                    0.01275818981230259,
                    0.8000000715255737,
                    1
                ],
                "metallicFactor" : 0,
                "roughnessFactor" : 0.5
            }
        }
    ],
    "meshes" : [
        {
            "name" : "Roundcube.046",
            "primitives" : [
                {
                    "attributes" : {
                        "POSITION" : 0,
                        "NORMAL" : 1
                    },
                    "indices" : 2,
                    "material" : 0
                }
            ]
        }
    ],
    "accessors" : [
        {
            "bufferView" : 0,
            "componentType" : 5126,
            "count" : 2128,
            "max" : [
                6.193809986114502,
                3.2387328147888184,
                4.457403182983398
            ],
            "min" : [
                -3.740856647491455,
                -5.969762325286865,
                -2.9700427055358887
            ],
            "type" : "VEC3"
        },
        {
            "bufferView" : 1,
            "componentType" : 5126,
            "count" : 2128,
            "type" : "VEC3"
        },
        {
            "bufferView" : 2,
            "componentType" : 5123,
            "count" : 12600,
            "type" : "SCALAR"
        }
    ],
    "bufferViews" : [
        {
            "buffer" : 0,
            "byteLength" : 25536,
            "byteOffset" : 0
        },
        {
            "buffer" : 0,
            "byteLength" : 25536,
            "byteOffset" : 25536
        },
        {
            "buffer" : 0,
            "byteLength" : 25200,
            "byteOffset" : 51072
        }
    ],
    "buffers" : [
        {
            "byteLength" : 76272,
            "uri" : "piedGaucheSingeBleu.bin"
        }
    ]
}
